<svg width="237" height="130" viewBox="0 0 237 130" fill="none" xmlns="http://www.w3.org/2000/svg">
<rect width="237" height="130" fill="#1C66AB" fill-opacity="0.05"/>
<circle cx="119" cy="65" r="35" fill="white"/>
<path fill-rule="evenodd" clip-rule="evenodd" d="M118.153 60.5549L113.987 65.4913L112.758 64.4006L118.987 57.0556L125.242 64.4425L123.987 65.5139L119.82 60.5581V73.1667H118.153V60.5549ZM129.833 76.3889H108.167C104.032 76.3889 100.667 73.1377 100.667 69.1389C100.667 65.6299 103.258 62.6332 106.83 62.0113L108.128 61.7858L108.2 60.5146C108.508 54.9595 113.252 50.6111 119 50.6111C124.748 50.6111 129.492 54.9595 129.797 60.5146L129.87 61.7858L131.17 62.0113C134.74 62.6332 137.333 65.6299 137.333 69.1389C137.333 73.1377 133.968 76.3889 129.833 76.3889V76.3889ZM131.463 60.426C131.11 54.0605 125.677 49 119 49C112.323 49 106.888 54.0605 106.535 60.426C102.252 61.1719 99 64.7857 99 69.1389C99 74.0318 103.105 78 108.167 78H129.833C134.895 78 139 74.0318 139 69.1389C139 64.7857 135.748 61.1719 131.463 60.426" fill="#1C66AB"/>
</svg>
