<svg width="32" height="32" viewBox="0 0 32 32" fill="none" xmlns="http://www.w3.org/2000/svg">
<path d="M32 16C32 24.9137 26.5882 32 16 32C5.36471 32 0 24.9137 0 16C0 7.04179 5.36471 0 16 0C26.5882 0 32 7.04179 32 16Z" fill="#3368A5"/>
<rect opacity="0.25" x="6" y="6" width="20" height="20" rx="10" fill="white"/>
<path d="M16 10C12.6865 10 10 12.6865 10 16C10 19.3135 12.6865 22 16 22C19.3135 22 22 19.3135 22 16C22 12.6865 19.3135 10 16 10ZM18.163 19.133L16 17.976L13.837 19.1325L14.2685 16.718L12.5 15.0185L14.93 14.683L16 12.4755L17.07 14.683L19.5 15.0185L17.7315 16.7185L18.163 19.133V19.133Z" fill="white"/>
</svg>
