<svg width="32" height="32" viewBox="0 0 32 32" fill="none" xmlns="http://www.w3.org/2000/svg">
<path d="M32 16C32 24.9137 26.5882 32 16 32C5.36471 32 0 24.9137 0 16C0 7.04179 5.36471 0 16 0C26.5882 0 32 7.04179 32 16Z" fill="#3368A5"/>
<path d="M13.3 7.4C13.8 7.4 14.2 7.8 14.2 8.2V14.2C14.2 14.5 14.4 14.7 14.7 14.7C15 14.7 15.2 14.5 15.2 14.2V13.7C15.2 13.3 15.5 13 15.9 13H16C16.3 13.1 16.6 13.4 16.6 13.7V14.8C16.6 15.1 16.8 15.3 17.1 15.3C17.4 15.3 17.6 15.1 17.6 14.8V14.1C17.6 13.7 17.9 13.4 18.3 13.4H18.4C18.7 13.5 19 13.8 19 14.1V15.4C19 15.7 19.2 15.9 19.5 15.9C19.8 15.9 20 15.7 20 15.4V14.6C20 14.2 20.3 14 20.6 14C20.7 14 20.8 14 20.9 14.1C21.5 14.4 21.9 14.9 21.9 16.2C21.9 17.4 21.5 18.1 20.9 19.1C20.2 20.4 19.3 21.9 19.3 24.6H14C13.4 21.3 10.7 19.2 8.50001 16.9C7.90001 16.3 8.20001 15.7 8.90001 15.7C10 15.7 11.5 17.3 12.4 18.5V8.2C12.4 7.8 12.8 7.4 13.3 7.4ZM13.3 6C12 6 11 7 11 8.2V15.1C10.2 14.6 9.50001 14.3 8.90001 14.3C8.00001 14.3 7.20001 14.8 6.90001 15.5C6.60001 16.3 6.80001 17.2 7.50001 17.9C7.80001 18.2 8.10001 18.5 8.50001 18.8C10.4 20.7 12.2 22.4 12.7 24.8L12.9 25.9H14H19.3H20.7V24.5C20.7 22.2 21.5 20.8 22.1 19.6C22.7 18.5 23.2 17.6 23.2 16C23.2 14.3 22.6 13.2 21.4 12.6C21.1 12.5 20.8 12.4 20.5 12.4C20.3 12.4 20 12.4 19.8 12.5C19.5 12.1 19.1 11.9 18.6 11.8C18.5 11.8 18.3 11.8 18.2 11.8C17.9 11.8 17.5 11.9 17.3 12C17 11.7 16.6 11.5 16.2 11.4C16.1 11.4 15.9 11.4 15.8 11.4C15.7 11.4 15.6 11.4 15.5 11.4V8.2C15.5 7 14.5 6 13.3 6Z" fill="white"/>
</svg>
