<svg width="254" height="150" viewBox="0 0 254 150" fill="none" xmlns="http://www.w3.org/2000/svg">
<path opacity="0.4" d="M0 0H254V150H0V0Z" fill="#2F5AAD"/>
<rect opacity="0.2" width="254" height="100" fill="#2F5AAD"/>
<path d="M110 44H50V48H110V44Z" fill="white"/>
<path d="M90 52H50V56H90V52Z" fill="white"/>
<path d="M60 81H50V85H60V81Z" fill="white"/>
<path d="M110 64H50V67H110V64Z" fill="white"/>
<path d="M110 70H50V73H110V70Z" fill="white"/>
<circle opacity="0.3" cx="227" cy="133" r="7" fill="white"/>
<path d="M226 131L228 133L226 135" stroke="white" stroke-width="1.25"/>
<circle opacity="0.3" cx="209" cy="133" r="7" transform="rotate(180 209 133)" fill="white"/>
<path d="M210 135L208 133L210 131" stroke="white" stroke-width="1.25"/>
<rect opacity="0.2" x="244" width="10" height="50" fill="#2F5AAD"/>
<rect opacity="0.1" x="244" y="50" width="10" height="50" fill="#2F5AAD"/>
<rect opacity="0.05" x="244" y="100" width="10" height="50" fill="#2F5AAD"/>
<rect x="248" y="22" width="2" height="5.88235" fill="white"/>
<rect opacity="0.5" x="248" y="72" width="2" height="5.88235" fill="white"/>
<rect opacity="0.5" x="248" y="122" width="2" height="5.88235" fill="white"/>
<rect x="14.4097" y="20" width="17.2913" height="4" fill="white"/>
<rect x="95.1025" y="21" width="11.5276" height="2" fill="white"/>
<rect x="112.394" y="21" width="11.5276" height="2" fill="white"/>
<rect x="129.685" y="21" width="11.5276" height="2" fill="white"/>
<rect x="146.977" y="21" width="11.5276" height="2" fill="white"/>
<rect x="164.268" y="21" width="11.5276" height="2" fill="white"/>
<rect x="181.559" y="21" width="11.5276" height="2" fill="white"/>
<rect x="212.299" y="21" width="5.76378" height="2" fill="white"/>
<rect x="223.827" y="21" width="5.76378" height="2" fill="white"/>
</svg>
