<svg width="32" height="32" viewBox="0 0 32 32" fill="none" xmlns="http://www.w3.org/2000/svg">
<path d="M32 16C32 24.9137 26.5882 32 16 32C5.36471 32 0 24.9137 0 16C0 7.04179 5.36471 0 16 0C26.5882 0 32 7.04179 32 16Z" fill="#3368A5"/>
<path d="M11 10H8C7.44772 10 7 10.4477 7 11C7 11.5523 7.44772 12 8 12H11C11.5523 12 12 11.5523 12 11C12 10.4477 11.5523 10 11 10Z" fill="white"/>
<path d="M24 10H21C20.4477 10 20 10.4477 20 11C20 11.5523 20.4477 12 21 12H24C24.5523 12 25 11.5523 25 11C25 10.4477 24.5523 10 24 10Z" fill="white"/>
<path d="M14 11.5C14 11.7761 14.2239 12 14.5 12C14.7761 12 15 11.7761 15 11.5C15 11.2239 14.7761 11 14.5 11C14.2239 11 14 11.2239 14 11.5Z" fill="white"/>
<path d="M17 11.5C17 11.7761 17.2239 12 17.5 12C17.7761 12 18 11.7761 18 11.5C18 11.2239 17.7761 11 17.5 11C17.2239 11 17 11.2239 17 11.5Z" fill="white"/>
<path d="M11 15H8C7.44772 15 7 15.4477 7 16C7 16.5523 7.44772 17 8 17H11C11.5523 17 12 16.5523 12 16C12 15.4477 11.5523 15 11 15Z" fill="white"/>
<path d="M24 15H21C20.4477 15 20 15.4477 20 16C20 16.5523 20.4477 17 21 17H24C24.5523 17 25 16.5523 25 16C25 15.4477 24.5523 15 24 15Z" fill="white"/>
<path d="M14 16.5C14 16.7761 14.2239 17 14.5 17C14.7761 17 15 16.7761 15 16.5C15 16.2239 14.7761 16 14.5 16C14.2239 16 14 16.2239 14 16.5Z" fill="white"/>
<path d="M17 16.5C17 16.7761 17.2239 17 17.5 17C17.7761 17 18 16.7761 18 16.5C18 16.2239 17.7761 16 17.5 16C17.2239 16 17 16.2239 17 16.5Z" fill="white"/>
<path d="M11 20H8C7.44772 20 7 20.4477 7 21C7 21.5523 7.44772 22 8 22H11C11.5523 22 12 21.5523 12 21C12 20.4477 11.5523 20 11 20Z" fill="white"/>
<path d="M24 20H21C20.4477 20 20 20.4477 20 21C20 21.5523 20.4477 22 21 22H24C24.5523 22 25 21.5523 25 21C25 20.4477 24.5523 20 24 20Z" fill="white"/>
<path d="M14 21.5C14 21.7761 14.2239 22 14.5 22C14.7761 22 15 21.7761 15 21.5C15 21.2239 14.7761 21 14.5 21C14.2239 21 14 21.2239 14 21.5Z" fill="white"/>
<path d="M17 21.5C17 21.7761 17.2239 22 17.5 22C17.7761 22 18 21.7761 18 21.5C18 21.2239 17.7761 21 17.5 21C17.2239 21 17 21.2239 17 21.5Z" fill="white"/>
</svg>
